<?xml version="1.0" standalone="no"?>
<!DOCTYPE svg PUBLIC "-//W3C//DTD SVG 20010904//EN"
 "http://www.w3.org/TR/2001/REC-SVG-20010904/DTD/svg10.dtd">
<svg version="1.0" xmlns="http://www.w3.org/2000/svg"
 width="512.000000pt" height="512.000000pt" viewBox="0 0 512.000000 512.000000"
 preserveAspectRatio="xMidYMid meet">

<g transform="translate(0.000000,512.000000) scale(0.100000,-0.100000)"
fill="#000000" stroke="none">
<path d="M1316 4419 c-390 -45 -757 -262 -960 -567 -103 -155 -175 -328 -218
-525 -32 -148 -32 -435 1 -587 70 -327 217 -629 434 -890 102 -123 334 -351
462 -454 61 -48 224 -164 364 -257 238 -159 371 -240 985 -604 l248 -147 52
33 c28 18 193 120 366 227 481 297 836 536 1040 700 121 98 353 328 458 455
224 272 377 589 444 918 20 97 23 145 23 319 0 178 -3 219 -23 308 -34 152
-66 243 -132 377 -129 264 -322 453 -591 579 -188 89 -328 120 -529 119 -333
-1 -706 -143 -1001 -381 -48 -38 -91 -72 -98 -76 -6 -4 -41 17 -78 47 -355
286 -863 451 -1247 406z m47 -46 c-7 -2 -21 -2 -30 0 -10 3 -4 5 12 5 17 0 24
-2 18 -5z m250 0 c-7 -2 -21 -2 -30 0 -10 3 -4 5 12 5 17 0 24 -2 18 -5z
m2010 0 c-7 -2 -19 -2 -25 0 -7 3 -2 5 12 5 14 0 19 -2 13 -5z m250 0 c-7 -2
-21 -2 -30 0 -10 3 -4 5 12 5 17 0 24 -2 18 -5z m-2596 -9 c-3 -3 -12 -4 -19
-1 -8 3 -5 6 6 6 11 1 17 -2 13 -5z m420 0 c-3 -3 -12 -4 -19 -1 -8 3 -5 6 6
6 11 1 17 -2 13 -5z m1850 0 c-3 -3 -12 -4 -19 -1 -8 3 -5 6 6 6 11 1 17 -2
13 -5z m-50 -10 c-3 -3 -12 -4 -19 -1 -8 3 -5 6 6 6 11 1 17 -2 13 -5z m-1700
-10 c-3 -3 -12 -4 -19 -1 -8 3 -5 6 6 6 11 1 17 -2 13 -5z m-7 -48 c162 -32
367 -104 469 -163 122 -72 188 -117 285 -192 43 -33 85 -61 93 -61 21 0 54 19
95 56 101 90 381 274 401 262 1 -1 11 4 23 10 46 24 265 84 359 97 124 18 331
14 439 -9 85 -19 217 -62 281 -91 60 -28 198 -129 271 -198 278 -260 429 -638
411 -1032 -16 -347 -202 -811 -446 -1115 -220 -272 -460 -481 -891 -772 -182
-124 -743 -490 -849 -555 -71 -43 -110 -43 -182 0 -1170 712 -1389 863 -1678
1157 -258 261 -414 502 -520 800 -88 249 -117 407 -108 599 15 338 141 626
376 861 206 205 414 313 686 355 112 17 379 12 485 -9z m-871 -40 c-10 -9 -89
-46 -89 -41 0 6 72 44 84 45 5 0 7 -2 5 -4z"/>
<path d="M1210 3801 l0 -108 -89 -6 c-117 -9 -189 -25 -212 -48 -25 -25 -24
-36 4 -50 20 -11 21 -11 7 5 -13 16 -12 20 5 32 33 24 86 35 198 41 l107 6 0
118 c0 73 -4 119 -10 119 -6 0 -10 -43 -10 -109z"/>
<path d="M1795 3603 c-4 -49 -6 -182 -4 -297 l4 -210 -67 -11 c-37 -6 -71 -15
-75 -19 -4 -5 8 -6 26 -2 19 3 59 9 87 12 l53 7 3 41 c2 22 -2 57 -9 76 -12
34 -12 53 2 368 6 141 -9 167 -20 35z"/>
<path d="M2080 3610 c19 -11 40 -19 45 -19 6 0 -6 8 -25 19 -19 11 -39 19 -45
19 -5 0 6 -8 25 -19z"/>
<path d="M3043 3603 c9 -2 23 -2 30 0 6 3 -1 5 -18 5 -16 0 -22 -2 -12 -5z"/>
<path d="M3090 3540 l0 -70 -52 -1 c-60 -1 -92 -9 -95 -24 -1 -6 19 -9 49 -6
36 2 47 6 37 13 -10 6 0 8 31 6 l45 -3 3 78 c2 48 -1 77 -8 77 -6 0 -10 -28
-10 -70z"/>
<path d="M2988 3593 c7 -3 16 -2 19 1 4 3 -2 6 -13 5 -11 0 -14 -3 -6 -6z"/>
<path d="M3668 3515 c2 -41 8 -75 13 -75 13 0 7 142 -6 147 -6 2 -9 -25 -7
-72z"/>
<path d="M2176 3572 c8 -5 10 -78 6 -244 l-5 -238 -31 -1 c-42 -1 -83 -13 -71
-21 6 -3 36 -3 68 -1 48 5 57 8 57 25 0 19 1 19 26 -1 49 -39 183 -16 192 32
3 15 -1 14 -32 -7 -70 -47 -137 -42 -177 14 -17 23 -18 39 -8 229 8 164 7 206
-3 213 -16 10 -37 10 -22 0z"/>
<path d="M3538 3573 c7 -3 16 -2 19 1 4 3 -2 6 -13 5 -11 0 -14 -3 -6 -6z"/>
<path d="M1048 3563 c7 -3 16 -2 19 1 4 3 -2 6 -13 5 -11 0 -14 -3 -6 -6z"/>
<path d="M2907 3503 c-4 -37 -7 -145 -7 -239 l0 -171 -51 -6 c-29 -4 -54 -9
-57 -12 -12 -12 8 -15 66 -9 l60 7 4 241 c3 239 -3 319 -15 189z"/>
<path d="M1167 3524 c49 -29 88 -89 98 -152 l7 -43 28 45 c30 46 54 65 105 77
27 6 28 7 5 8 -32 1 -84 -30 -106 -64 l-17 -27 -18 48 c-20 51 -59 98 -101
120 -45 24 -46 15 -1 -12z"/>
<path d="M4497 3492 c7 -5 16 -29 19 -54 l6 -45 -63 -12 c-102 -20 -119 -51
-28 -51 86 0 129 -35 129 -103 0 -76 -82 -126 -207 -128 -66 -1 -73 -2 -43
-10 82 -21 225 24 254 80 47 90 -10 171 -121 171 -64 0 -45 17 36 32 l63 12
-6 35 c-3 20 -6 46 -6 59 0 16 -6 22 -22 22 -15 0 -19 -3 -11 -8z"/>
<path d="M680 3487 c-1 -21 43 -88 70 -107 18 -13 76 -32 133 -45 73 -17 96
-19 82 -9 -10 8 -24 14 -31 14 -6 0 -44 7 -83 16 -80 18 -121 46 -151 103 -10
20 -19 32 -20 28z"/>
<path d="M4458 3483 c7 -3 16 -2 19 1 4 3 -2 6 -13 5 -11 0 -14 -3 -6 -6z"/>
<path d="M2003 3469 c10 -6 27 -25 38 -42 18 -28 20 -29 14 -7 -7 27 -40 60
-59 60 -6 0 -3 -5 7 -11z"/>
<path d="M2461 3465 c49 -27 58 -64 51 -220 l-7 -140 -50 -5 c-27 -3 -45 -8
-40 -11 6 -3 31 -4 58 -1 45 4 47 5 48 36 1 17 1 34 0 39 -2 15 18 6 23 -11
13 -40 63 -75 115 -80 66 -6 131 28 131 69 l0 27 -39 -39 c-34 -34 -45 -39
-84 -39 -102 0 -171 122 -137 240 7 24 7 45 -1 67 -11 33 -61 83 -82 83 -7 -1
0 -7 14 -15z"/>
<path d="M3124 3466 c-3 -7 -4 -33 -1 -57 l4 -44 1 52 c2 40 6 53 20 56 16 4
16 5 -1 6 -10 0 -20 -5 -23 -13z"/>
<path d="M2750 3443 c13 -18 25 -33 27 -33 8 0 -17 38 -33 51 -11 9 -9 2 6
-18z"/>
<path d="M3218 3459 c47 -9 52 -13 52 -36 0 -24 1 -25 18 -11 9 9 24 18 32 22
8 3 4 4 -9 2 -14 -3 -29 1 -35 9 -6 8 -33 17 -61 20 l-50 4 53 -10z"/>
<path d="M3748 3463 c7 -3 16 -2 19 1 4 3 -2 6 -13 5 -11 0 -14 -3 -6 -6z"/>
<path d="M4380 3460 c-8 -5 -10 -10 -5 -10 6 0 17 5 25 10 8 5 11 10 5 10 -5
0 -17 -5 -25 -10z"/>
<path d="M1491 3451 c53 -11 94 -45 123 -103 35 -71 35 -130 -1 -186 -66 -101
-214 -110 -313 -19 -19 18 -28 23 -20 12 39 -55 100 -85 176 -85 74 0 130 25
165 73 63 86 24 249 -71 297 -21 11 -52 19 -67 19 -25 -1 -24 -2 8 -8z"/>
<path d="M3801 3445 c48 -26 64 -76 67 -216 l4 -126 -32 -7 c-18 -3 -51 -6
-74 -6 -22 0 -48 -5 -56 -11 -11 -7 12 -8 75 -3 50 3 93 8 98 11 4 2 7 18 7
35 l0 30 39 -35 c105 -95 291 -62 331 58 14 43 16 133 4 145 -7 7 -8 -13 -6
-55 4 -58 1 -70 -22 -106 -79 -119 -295 -98 -345 34 -23 61 -12 114 44 202 26
42 3 18 -27 -27 l-25 -38 -12 41 c-14 47 -51 89 -78 89 -14 -1 -12 -4 8 -15z"/>
<path d="M3384 3433 c81 -30 90 -51 94 -212 l4 -138 -32 -7 c-18 -3 -54 -6
-81 -6 -37 0 -49 4 -53 18 -3 10 -4 7 -3 -8 2 -24 3 -25 87 -21 47 1 87 4 88
6 10 9 4 255 -6 292 -15 49 -50 79 -107 88 -39 6 -39 5 9 -12z"/>
<path d="M3072 3434 c13 -4 17 -27 23 -142 3 -75 7 -146 8 -156 2 -15 -16 -27
-80 -54 -45 -20 -80 -39 -77 -43 2 -4 40 8 84 27 69 30 82 33 94 21 14 -14
134 -32 144 -22 3 3 8 60 11 128 5 99 9 122 21 122 12 0 16 -21 21 -105 l5
-105 2 100 c2 109 -6 137 -35 119 -21 -13 -20 -8 -28 -147 l-7 -108 -36 6
c-21 4 -50 9 -65 12 l-29 5 5 116 c3 74 2 93 -3 52 -8 -82 -11 -72 -19 65 -6
108 -6 110 -31 112 -14 1 -18 -1 -8 -3z"/>
<path d="M4200 3405 c40 -48 43 -51 32 -30 -6 11 -21 29 -34 40 -22 19 -22 19
2 -10z"/>
<path d="M2273 3369 c-18 -5 -33 -14 -33 -19 0 -12 34 -7 84 11 27 10 41 10
61 1 14 -6 25 -8 25 -3 0 22 -77 27 -137 10z"/>
<path d="M1986 3338 c-21 -29 -21 -102 0 -122 21 -22 27 -20 14 3 -23 44 -4
128 27 117 13 -5 14 -4 3 9 -17 20 -26 19 -44 -7z"/>
<path d="M2706 3338 c-21 -29 -21 -102 0 -122 22 -23 25 -20 8 12 -23 45 2
126 32 101 17 -14 19 2 2 19 -17 17 -25 15 -42 -10z"/>
<path d="M1421 3321 c-15 -27 -14 -104 1 -119 14 -14 44 -16 52 -3 4 5 -3 7
-14 4 -14 -4 -23 2 -31 20 -23 51 15 136 43 96 8 -12 9 -11 5 1 -6 23 -44 24
-56 1z"/>
<path d="M3677 3333 c-3 -5 -8 -63 -12 -131 -5 -78 -11 -125 -19 -127 -6 -1
-46 -10 -89 -20 -42 -9 -75 -20 -72 -24 2 -4 45 1 95 13 104 23 94 7 106 181
3 57 11 103 18 107 7 5 5 8 -6 8 -9 0 -19 -3 -21 -7z"/>
<path d="M4040 3314 c-15 -38 -12 -88 6 -110 14 -18 15 -18 3 5 -13 27 -6 98
11 115 30 29 57 -91 28 -124 -11 -12 -10 -12 5 -1 19 15 24 90 7 122 -15 28
-49 24 -60 -7z"/>
<path d="M748 3253 c7 -3 16 -2 19 1 4 3 -2 6 -13 5 -11 0 -14 -3 -6 -6z"/>
<path d="M2342 3248 c-23 -12 -39 -49 -27 -67 10 -17 25 -13 19 4 -13 33 55
76 84 53 13 -11 14 -10 10 2 -6 18 -55 23 -86 8z"/>
<path d="M798 3243 c7 -3 16 -2 19 1 4 3 -2 6 -13 5 -11 0 -14 -3 -6 -6z"/>
<path d="M1228 3204 c-33 -53 -100 -98 -187 -124 -76 -24 -236 -27 -323 -6
-32 7 -58 10 -58 6 0 -15 88 -31 200 -37 103 -4 123 -2 190 19 41 14 94 36
117 51 51 32 96 89 91 115 -2 16 -9 10 -30 -24z"/>
<path d="M4316 3228 c3 -4 15 -8 27 -8 38 0 67 -12 60 -24 -3 -7 -1 -6 7 1 8
7 11 15 8 18 -9 10 -108 22 -102 13z"/>
<path d="M4299 3187 c5 -5 28 -7 52 -5 l44 3 -52 5 c-29 3 -48 1 -44 -3z"/>
<path d="M2052 3148 c-19 -35 -63 -58 -111 -58 -31 0 -49 7 -78 33 -33 29 -35
29 -18 5 30 -39 68 -58 119 -58 57 0 110 41 104 80 l-3 23 -13 -25z"/>
<path d="M2635 3010 c27 -12 43 -12 25 0 -8 5 -22 9 -30 9 -10 0 -8 -3 5 -9z"/>
<path d="M2726 2958 c-3 -13 -6 -87 -6 -165 l0 -141 -40 -7 c-22 -4 -40 -11
-40 -17 0 -6 10 -8 23 -4 12 3 32 6 45 6 17 0 22 6 22 25 0 14 3 25 6 25 3 0
19 -11 36 -25 23 -20 41 -25 83 -25 66 0 106 28 110 78 1 18 5 35 9 39 12 13
5 59 -13 87 -21 31 -56 55 -81 55 -8 0 -1 -6 17 -14 34 -14 79 -86 69 -111 -6
-17 -111 -48 -128 -38 -9 6 -9 3 1 -9 15 -19 53 -22 83 -6 24 13 32 7 23 -20
-14 -45 -99 -65 -155 -36 -42 22 -60 53 -60 106 0 56 33 104 83 118 25 7 27 9
10 10 -12 1 -38 -13 -57 -29 l-35 -31 6 76 c6 74 1 97 -11 53z"/>
<path d="M2621 2941 c-1 -27 -4 -32 -18 -27 -14 6 -14 3 3 -15 l19 -21 3 26
c2 14 1 36 -1 49 -3 15 -5 12 -6 -12z"/>
<path d="M2028 2923 c7 -3 16 -2 19 1 4 3 -2 6 -13 5 -11 0 -14 -3 -6 -6z"/>
<path d="M2095 2901 c129 -59 189 -191 189 -416 -1 -197 -42 -288 -157 -344
-73 -36 -227 -57 -342 -46 -53 5 -67 4 -59 -5 15 -15 233 -15 315 -1 110 19
191 76 227 161 55 131 44 401 -23 531 -31 58 -134 140 -177 139 -7 0 5 -9 27
-19z"/>
<path d="M2837 2843 c-4 -3 -7 -16 -7 -28 0 -25 25 -51 34 -37 3 6 -1 12 -9
16 -8 3 -15 12 -15 21 0 18 16 20 23 3 4 -8 6 -9 6 -2 1 15 -24 36 -32 27z"/>
<path d="M2579 2806 c-11 -24 -5 -76 9 -76 4 0 7 16 7 35 0 43 18 50 26 10 5
-24 7 -26 8 -7 1 27 -15 62 -30 62 -5 0 -14 -11 -20 -24z"/>
<path d="M2451 2772 c-1 -50 22 -106 53 -127 42 -30 136 -10 136 28 0 20 0 20
-22 0 -34 -31 -63 -36 -97 -18 -38 19 -54 47 -62 110 l-6 50 -2 -43z"/>
<path d="M1953 2723 c-23 -4 -23 -5 -23 -204 0 -126 4 -199 10 -199 6 0 10 70
10 189 0 163 2 190 16 195 31 12 53 6 73 -20 12 -15 21 -23 21 -18 0 5 -8 19
-18 31 -18 23 -53 33 -89 26z"/>
<path d="M3615 2588 l6 -67 -38 -6 c-80 -13 -99 -18 -130 -31 -18 -7 -33 -20
-33 -28 0 -19 7 -20 25 -3 12 12 67 27 157 42 l37 6 -6 67 c-3 37 -10 72 -15
77 -7 7 -8 -13 -3 -57z"/>
<path d="M3143 2593 c9 -2 23 -2 30 0 6 3 -1 5 -18 5 -16 0 -22 -2 -12 -5z"/>
<path d="M3265 2578 c-13 -57 -25 -214 -25 -329 l0 -126 -73 -7 c-41 -4 -81
-4 -90 0 -10 3 -17 1 -17 -5 0 -8 29 -11 98 -9 l97 3 5 140 c5 131 6 138 19
107 20 -48 60 -71 138 -81 37 -5 70 -7 72 -5 12 10 -17 22 -69 27 -122 13
-156 58 -147 191 3 45 9 89 12 99 4 10 3 17 -4 17 -6 0 -13 -10 -16 -22z"/>
<path d="M2538 2573 c12 -2 32 -2 45 0 12 2 2 4 -23 4 -25 0 -35 -2 -22 -4z"/>
<path d="M2992 2466 c-18 -174 -15 -216 15 -216 13 0 13 3 3 15 -13 15 -11
105 6 258 4 34 3 57 -3 57 -5 0 -15 -51 -21 -114z"/>
<path d="M2656 2538 c53 -36 97 -104 109 -170 6 -34 5 -38 -26 -53 -63 -33
-143 -55 -198 -55 l-56 0 25 -25 c14 -13 41 -27 60 -30 l35 -5 -32 10 c-51 16
-47 27 13 34 30 3 86 18 125 33 l69 27 0 49 c0 79 -50 161 -122 198 -56 28
-56 23 -2 -13z"/>
<path d="M2505 2494 c-24 -25 -19 -88 11 -123 14 -17 30 -31 36 -31 5 0 -2 14
-16 31 -44 52 -28 142 17 101 19 -16 20 -16 9 4 -15 29 -38 36 -57 18z"/>
<path d="M3650 2380 c19 -26 25 -48 25 -85 0 -69 -28 -106 -112 -147 -63 -31
-74 -33 -170 -33 -98 0 -122 -5 -87 -19 29 -11 150 -6 209 9 65 17 127 54 158
96 36 50 20 160 -29 200 -12 9 -10 2 6 -21z"/>
<path d="M2737 2253 c-2 -4 -8 -27 -12 -50 -11 -68 -83 -113 -183 -113 -84 0
-131 18 -185 72 -26 26 -43 39 -37 29 34 -65 114 -111 205 -119 69 -5 120 8
176 43 30 20 38 32 47 77 9 47 3 84 -11 61z"/>
<path d="M2782 2210 c0 -14 2 -19 5 -12 2 6 2 18 0 25 -3 6 -5 1 -5 -13z"/>
<path d="M3293 2195 c0 -22 2 -30 4 -17 2 12 2 30 0 40 -3 9 -5 -1 -4 -23z"/>
<path d="M3043 2161 c-28 -46 -137 -74 -193 -51 -17 7 -37 25 -45 39 -8 14
-14 20 -15 14 0 -7 12 -26 28 -43 35 -39 82 -47 153 -26 67 20 92 38 87 66 -3
21 -3 21 -15 1z"/>
<path d="M2314 1888 c0 -7 -5 -40 -12 -73 l-12 -61 -64 2 -64 3 -10 -47 -10
-47 -1 66 c-1 71 5 81 64 112 17 9 26 16 21 17 -5 0 -28 -11 -51 -24 l-41 -25
-18 -123 c-19 -136 -42 -255 -83 -425 -15 -62 -25 -114 -22 -117 2 -3 37 0 76
6 60 10 94 8 205 -8 73 -10 171 -18 218 -17 195 3 343 71 367 167 6 25 9 14
13 -51 3 -45 8 -84 11 -87 3 -4 46 -9 95 -12 l89 -6 29 53 c16 30 94 161 173
292 l143 239 -53 76 c-28 41 -57 77 -64 79 -6 3 -17 -6 -23 -19 -11 -22 -10
-22 4 -4 9 11 17 18 19 15 2 -2 25 -35 50 -73 l45 -68 -49 -77 -49 -78 -67 3
c-38 2 -73 -2 -81 -8 -18 -15 -5 16 57 141 28 55 49 101 46 101 -3 0 -41 -72
-85 -160 -44 -88 -81 -160 -83 -160 -1 0 -1 88 1 196 2 130 0 200 -7 207 -8 8
-11 -27 -12 -118 -1 -110 -13 -264 -18 -214 -1 13 -14 16 -73 15 l-73 -1 -5
-35 c-6 -37 -20 135 -20 242 0 36 -4 58 -11 58 -8 0 -9 -11 -5 -32 l6 -33 -22
27 c-26 30 -86 68 -108 68 -8 0 4 -9 27 -21 24 -12 54 -34 68 -51 44 -52 29
-148 -38 -236 l-24 -32 43 -44 c41 -41 44 -47 44 -99 0 -31 -5 -68 -11 -84
-16 -44 -69 -91 -124 -112 -58 -22 -190 -43 -226 -36 -13 3 -54 5 -91 6 -38 1
-68 3 -68 4 0 2 20 99 44 217 46 222 80 431 73 451 -2 6 -9 -31 -16 -83 -11
-85 -64 -368 -77 -412 -4 -15 -17 -18 -76 -18 -68 0 -70 1 -65 23 3 12 15 74
27 137 38 204 71 374 77 398 4 15 1 22 -10 22 -8 0 -14 -6 -13 -12z m-177
-275 c-3 -10 -5 -4 -5 12 0 17 2 24 5 18 2 -7 2 -21 0 -30z m752 -143 l1 -45
-19 31 c-11 18 -30 39 -42 48 -23 16 -23 17 -6 44 10 15 26 42 35 61 l17 34 6
-64 c4 -35 7 -84 8 -109z"/>
<path d="M2698 1873 c6 -2 18 -2 25 0 6 3 1 5 -13 5 -14 0 -19 -2 -12 -5z"/>
<path d="M2600 1767 c-29 -15 -37 -55 -19 -98 12 -29 44 -59 63 -59 6 0 0 7
-13 16 -32 23 -54 79 -41 103 12 24 62 36 89 21 23 -12 36 -48 29 -85 -3 -13
-1 -22 3 -19 5 3 9 23 9 45 0 70 -58 107 -120 76z"/>
<path d="M2580 1452 c-58 -9 -77 -65 -43 -123 23 -38 76 -64 102 -49 56 29 68
101 24 142 -33 29 -49 35 -83 30z m79 -48 c49 -63 -1 -136 -74 -108 -20 8 -45
56 -45 88 0 51 84 64 119 20z"/>
<path d="M2423 1193 c9 -2 25 -2 35 0 9 3 1 5 -18 5 -19 0 -27 -2 -17 -5z"/>
</g>
</svg>
